<?xml version="1.0"?>
<svg width="24" height="24" xmlns="http://www.w3.org/2000/svg" xmlns:svg="http://www.w3.org/2000/svg">
 <g class="layer">
  <title>Layer 1</title>
  <g id="svg_1" stroke="#141b34" stroke-linejoin="round" stroke-width="1.5">
   <path d="m15.1,2l0.54,2.39c0.46,2.03 2.04,3.61 4.07,4.07l2.39,0.54l-2.39,0.54c-2.03,0.46 -3.61,2.04 -4.07,4.07l-0.54,2.39l-0.54,-2.39c-0.46,-2.03 -2.04,-3.61 -4.07,-4.07l-2.39,-0.54l2.39,-0.54c2.03,-0.46 3.61,-2.04 4.07,-4.07l0.54,-2.39z" fill="#00007f" id="svg_2" stroke="#7f00ff"/>
   <path d="m7,11.9l0.38,1.71c0.33,1.45 1.46,2.58 2.91,2.91l1.71,0.38l-1.71,0.38c-1.45,0.33 -2.58,1.46 -2.91,2.91l-0.38,1.71l-0.38,-1.71c-0.33,-1.45 -1.46,-2.58 -2.91,-2.91l-1.71,-0.38l1.71,-0.38c1.45,-0.33 2.58,-1.46 2.91,-2.91l0.38,-1.71z" fill="#00007f" id="svg_3" stroke="#7f00ff"/>
  </g>
 </g>
</svg>